# xmcd CD database file
# Copyright (C) 1993-1998 Ti Kan
#
# Track frame offsets:
#	150
#	13062
#	26200
#	39587
#	54275
#	66462
#	78925
#	91450
#	104937
#	118450
#	131987
#	144662
#	157500
#	170725
#	184400
#	196807
#	210500
#	224475
#	237662
#	249962
#	263350
#
# Disc length: 3689 seconds
#
# Revision: 1
# Processed by: cddbd v1.4b41PL1 Copyright (c) Steve Scherf et al.
# Submitted via: QuintessentialCD v1.0 (c) 1998 Paul Quinn
#
DISCID=3d0e6715
DTITLE=Tommy Mclennan - The Bluebird Recordings 1939-1942 Disc 2
DYEAR=1900
DGENRE=
TTITLE0=Track 1Drop Down Mama
TTITLE1=Black Minnie
TTITLE2=Elsie Blues
TTITLE3=Des'e My Blues
TTITLE4=Cross Cut Saw (alt. take)
TTITLE5=Cross Cut Saw
TTITLE6=Classy Mae Blues
TTITLE7=You Can't Read My Mind
TTITLE8=Travelin' Highway Man
TTITLE9=Deep Sea Blues
TTITLE10=I'm A Guitar King
TTITLE11=It's A Crying pity
TTITLE12=Mozelle Blues
TTITLE13=Blues Trip Me This Morning
TTITLE14=Mr. So And So Blues
TTITLE15=Roll Me, Baby
TTITLE16=I Love My Baby
TTITLE17=Shake It Up And Go
TTITLE18=Blue As I Can Be
TTITLE19=Bluebird Blues
TTITLE20=Boogie Woogie Woman
EXTD=
EXTT0=
EXTT1=
EXTT2=
EXTT3=
EXTT4=
EXTT5=
EXTT6=
EXTT7=
EXTT8=
EXTT9=
EXTT10=
EXTT11=
EXTT12=
EXTT13=
EXTT14=
EXTT15=
EXTT16=
EXTT17=
EXTT18=
EXTT19=
EXTT20=
PLAYORDER=
